<svg xmlns="http://www.w3.org/2000/svg" viewBox="0 0 800 400" fill="none" aria-hidden="true">
  <g opacity="0.18" stroke="#1a1a1a" stroke-width="1.2">
    <ellipse cx="400" cy="200" rx="360" ry="170" />
    <path d="M120 200c40-60 100-90 160-90s120 30 160 90-80 90-160 90-120-30-160-90z" />
    <path d="M280 120c30 20 50 50 50 80s-20 60-50 80" />
    <path d="M520 120c-30 20-50 50-50 80s20 60 50 80" />
    <path d="M200 200h400" />
    <path d="M160 150c60 10 120 10 180 0" />
    <path d="M160 250c60-10 120-10 180 0" />
    <path d="M460 150c60 10 120 10 180 0" />
    <path d="M460 250c60-10 120-10 180 0" />
  </g>
</svg>
